<svg width="28" height="28" viewBox="0 0 28 28" fill="none" xmlns="http://www.w3.org/2000/svg">
<path d="M23.6251 24.5C23.5102 24.5002 23.3964 24.4776 23.2902 24.4336C23.1841 24.3896 23.0877 24.325 23.0066 24.2435L3.7566 4.99354C3.59943 4.82811 3.51311 4.60783 3.51603 4.37967C3.51895 4.1515 3.61088 3.9335 3.77224 3.77215C3.93359 3.6108 4.15159 3.51886 4.37975 3.51594C4.60792 3.51302 4.8282 3.59935 4.99363 3.75651L24.2436 23.0065C24.3659 23.1289 24.4492 23.2848 24.4829 23.4544C24.5166 23.6241 24.4993 23.8 24.4331 23.9598C24.3669 24.1197 24.2548 24.2563 24.111 24.3524C23.9672 24.4486 23.7981 24.4999 23.6251 24.5ZM13.9815 21C11.7125 21 9.52449 20.3285 7.47808 19.0039C5.61488 17.8008 3.93761 16.0776 2.6273 14.0274V14.023C3.71777 12.4606 4.91215 11.1393 6.19511 10.074C6.20672 10.0643 6.21619 10.0523 6.22292 10.0388C6.22965 10.0252 6.23349 10.0104 6.23421 9.9953C6.23493 9.98019 6.23251 9.9651 6.2271 9.95097C6.22169 9.93684 6.2134 9.92399 6.20277 9.91323L5.1134 8.8255C5.09404 8.80598 5.06804 8.79447 5.04058 8.79325C5.01311 8.79203 4.9862 8.8012 4.96519 8.81893C3.60238 9.96737 2.33746 11.3761 1.18738 13.0255C0.989512 13.3095 0.880539 13.6459 0.874307 13.992C0.868074 14.338 0.964865 14.6782 1.15238 14.9691C2.59668 17.2293 4.4555 19.133 6.52707 20.4734C8.85949 21.9844 11.3696 22.75 13.9815 22.75C15.3913 22.7456 16.7912 22.5133 18.1268 22.0621C18.1445 22.0561 18.1603 22.0457 18.1728 22.0319C18.1852 22.0181 18.194 22.0014 18.1982 21.9833C18.2024 21.9651 18.202 21.9462 18.1968 21.9284C18.1917 21.9105 18.1821 21.8942 18.1689 21.881L16.9888 20.7009C16.9616 20.6744 16.928 20.6554 16.8913 20.6458C16.8546 20.6362 16.816 20.6364 16.7793 20.6462C15.8654 20.8816 14.9253 21.0004 13.9815 21ZM26.8429 13.0485C25.3959 10.8107 23.5185 8.90972 21.4141 7.55073C19.0861 6.04573 16.5157 5.25003 13.9815 5.25003C12.5866 5.2525 11.2021 5.4897 9.88597 5.95167C9.86844 5.95777 9.85274 5.96824 9.84037 5.98208C9.828 5.99592 9.81935 6.01269 9.81525 6.0308C9.81115 6.04891 9.81172 6.06776 9.81692 6.08559C9.82211 6.10341 9.83177 6.11962 9.84496 6.13268L11.0235 7.3112C11.0509 7.33817 11.085 7.35743 11.1222 7.36703C11.1595 7.37663 11.1986 7.37624 11.2357 7.36589C12.1309 7.12372 13.0541 7.00071 13.9815 7.00003C16.2068 7.00003 18.3882 7.67979 20.4647 9.02347C22.3629 10.2485 24.0599 11.97 25.3735 14C25.3745 14.0013 25.375 14.0028 25.375 14.0044C25.375 14.006 25.3745 14.0075 25.3735 14.0088C24.42 15.5099 23.2367 16.8521 21.8669 17.9862C21.8552 17.9959 21.8456 18.0079 21.8388 18.0214C21.8319 18.035 21.828 18.0499 21.8272 18.0651C21.8265 18.0802 21.8289 18.0954 21.8343 18.1096C21.8397 18.1238 21.848 18.1367 21.8587 18.1475L22.947 19.2353C22.9662 19.2547 22.9921 19.2662 23.0194 19.2675C23.0468 19.2689 23.0736 19.2599 23.0946 19.2424C24.557 18.0111 25.8228 16.5638 26.8484 14.9505C27.0297 14.6662 27.1255 14.3358 27.1245 13.9987C27.1236 13.6615 27.0258 13.3317 26.8429 13.0485Z" fill="black"/>
<path d="M14.0001 8.75C13.6069 8.74979 13.2149 8.79381 12.8315 8.88125C12.8121 8.88527 12.7942 8.89447 12.7796 8.90786C12.7651 8.92126 12.7544 8.93835 12.7488 8.95731C12.7432 8.97628 12.7428 8.99641 12.7478 9.01557C12.7527 9.03472 12.7627 9.05218 12.7768 9.06609L18.934 15.2217C18.9479 15.2358 18.9654 15.2458 18.9846 15.2507C19.0037 15.2557 19.0239 15.2553 19.0428 15.2497C19.0618 15.2441 19.0789 15.2334 19.0923 15.2189C19.1057 15.2043 19.1149 15.1864 19.1189 15.167C19.2942 14.3981 19.294 13.5996 19.1184 12.8308C18.9428 12.062 18.5962 11.3427 18.1044 10.7262C17.6127 10.1097 16.9883 9.61186 16.2778 9.26975C15.5672 8.92763 14.7887 8.74999 14.0001 8.75ZM9.06622 12.7783C9.05231 12.7642 9.03485 12.7542 9.0157 12.7493C8.99654 12.7444 8.97641 12.7447 8.95744 12.7503C8.93848 12.7559 8.92139 12.7666 8.90799 12.7811C8.8946 12.7957 8.8854 12.8136 8.88138 12.833C8.68305 13.6994 8.70796 14.602 8.95376 15.4562C9.19956 16.3104 9.6582 17.0882 10.2867 17.7167C10.9152 18.3452 11.693 18.8039 12.5472 19.0497C13.4014 19.2955 14.304 19.3204 15.1704 19.122C15.1898 19.118 15.2077 19.1088 15.2223 19.0954C15.2368 19.082 15.2475 19.0649 15.2531 19.046C15.2587 19.027 15.2591 19.0069 15.2541 18.9877C15.2492 18.9686 15.2392 18.9511 15.2251 18.9372L9.06622 12.7783Z" fill="black"/>
</svg>
