<svg width="28" height="28" viewBox="0 0 28 28" fill="none" xmlns="http://www.w3.org/2000/svg">
<path d="M13.9815 6.125C9.71912 6.125 5.34685 8.59195 1.90482 13.5259C1.80657 13.6682 1.75273 13.8366 1.7501 14.0095C1.74747 14.1825 1.79617 14.3524 1.89005 14.4977C4.53474 18.6375 8.84849 21.875 13.9815 21.875C19.0586 21.875 23.461 18.6277 26.1106 14.4785C26.2023 14.3361 26.251 14.1702 26.251 14.0008C26.251 13.8314 26.2023 13.6656 26.1106 13.5231C23.455 9.42156 19.0204 6.125 13.9815 6.125Z" stroke="black" stroke-width="2.5" stroke-linecap="round" stroke-linejoin="round"/>
<path d="M14 18.375C16.4162 18.375 18.375 16.4162 18.375 14C18.375 11.5838 16.4162 9.625 14 9.625C11.5838 9.625 9.625 11.5838 9.625 14C9.625 16.4162 11.5838 18.375 14 18.375Z" stroke="black" stroke-width="2.5" stroke-miterlimit="10"/>
</svg>
