<svg width="59" height="80" viewBox="0 0 59 80" fill="none" xmlns="http://www.w3.org/2000/svg">
<path d="M4 53V26.9607L24.307 16.8686V53H17.7964V31.8912L41.8237 43.8323V53H35.9331V11.4758L55 2V53" stroke="#3189FF" stroke-width="2"/>
<path d="M20.9746 62.0176C20.9746 62.4408 20.8721 62.8086 20.667 63.1211C20.4619 63.4336 20.1624 63.6745 19.7686 63.8438C19.3779 64.013 18.9027 64.0977 18.3428 64.0977C18.0954 64.0977 17.8529 64.0814 17.6152 64.0488C17.3809 64.0163 17.1546 63.9691 16.9365 63.9072C16.7217 63.8421 16.5166 63.7624 16.3213 63.668V62.2617C16.6598 62.4115 17.0114 62.5465 17.376 62.667C17.7406 62.7874 18.1019 62.8477 18.46 62.8477C18.7074 62.8477 18.9059 62.8151 19.0557 62.75C19.2087 62.6849 19.3193 62.5954 19.3877 62.4814C19.4561 62.3675 19.4902 62.2373 19.4902 62.0908C19.4902 61.9118 19.43 61.7588 19.3096 61.6318C19.1891 61.5049 19.0231 61.3861 18.8115 61.2754C18.6032 61.1647 18.3672 61.0459 18.1035 60.9189C17.9375 60.8408 17.7568 60.7464 17.5615 60.6357C17.3662 60.5218 17.1807 60.3835 17.0049 60.2207C16.8291 60.0579 16.6842 59.861 16.5703 59.6299C16.4596 59.3955 16.4043 59.1156 16.4043 58.79C16.4043 58.3636 16.502 57.999 16.6973 57.6963C16.8926 57.3936 17.1709 57.1624 17.5322 57.0029C17.8968 56.8402 18.3265 56.7588 18.8213 56.7588C19.1924 56.7588 19.5456 56.8027 19.8809 56.8906C20.2194 56.9753 20.5726 57.099 20.9404 57.2617L20.4521 58.4385C20.1234 58.305 19.8288 58.2025 19.5684 58.1309C19.3079 58.056 19.0426 58.0186 18.7725 58.0186C18.5837 58.0186 18.4225 58.0495 18.2891 58.1113C18.1556 58.1699 18.0547 58.2546 17.9863 58.3652C17.918 58.4727 17.8838 58.598 17.8838 58.7412C17.8838 58.9105 17.9326 59.0537 18.0303 59.1709C18.1312 59.2848 18.2809 59.3955 18.4795 59.5029C18.6813 59.6104 18.932 59.7357 19.2314 59.8789C19.596 60.0514 19.9069 60.2321 20.1641 60.4209C20.4245 60.6064 20.6247 60.8262 20.7646 61.0801C20.9046 61.3307 20.9746 61.6432 20.9746 62.0176ZM21.9414 63.3018C21.9414 62.9958 22.0244 62.7809 22.1904 62.6572C22.3597 62.5335 22.5632 62.4717 22.8008 62.4717C23.0319 62.4717 23.2305 62.5335 23.3965 62.6572C23.5658 62.7809 23.6504 62.9958 23.6504 63.3018C23.6504 63.5947 23.5658 63.8063 23.3965 63.9365C23.2305 64.0667 23.0319 64.1318 22.8008 64.1318C22.5632 64.1318 22.3597 64.0667 22.1904 63.9365C22.0244 63.8063 21.9414 63.5947 21.9414 63.3018ZM31.5996 60.4209C31.5996 60.971 31.5312 61.4723 31.3945 61.9248C31.2578 62.374 31.0495 62.7614 30.7695 63.0869C30.4928 63.4124 30.1413 63.6631 29.7148 63.8389C29.2884 64.0114 28.7839 64.0977 28.2012 64.0977C27.6185 64.0977 27.1139 64.0114 26.6875 63.8389C26.2611 63.6631 25.9079 63.4124 25.6279 63.0869C25.3512 62.7614 25.1445 62.3724 25.0078 61.9199C24.8711 61.4674 24.8027 60.9645 24.8027 60.4111C24.8027 59.6722 24.9232 59.0293 25.1641 58.4824C25.4082 57.9323 25.7826 57.5059 26.2871 57.2031C26.7917 56.9004 27.4329 56.749 28.2109 56.749C28.9857 56.749 29.6221 56.9004 30.1201 57.2031C30.6214 57.5059 30.9925 57.9323 31.2334 58.4824C31.4775 59.0326 31.5996 59.6787 31.5996 60.4209ZM26.3896 60.4209C26.3896 60.9189 26.4515 61.3486 26.5752 61.71C26.7021 62.068 26.8991 62.3447 27.166 62.54C27.4329 62.7321 27.778 62.8281 28.2012 62.8281C28.6309 62.8281 28.9792 62.7321 29.2461 62.54C29.513 62.3447 29.7067 62.068 29.8271 61.71C29.9508 61.3486 30.0127 60.9189 30.0127 60.4209C30.0127 59.6722 29.8727 59.083 29.5928 58.6533C29.3128 58.2236 28.8522 58.0088 28.2109 58.0088C27.7845 58.0088 27.4362 58.1064 27.166 58.3018C26.8991 58.4938 26.7021 58.7705 26.5752 59.1318C26.4515 59.4899 26.3896 59.9196 26.3896 60.4209ZM32.752 63.3018C32.752 62.9958 32.835 62.7809 33.001 62.6572C33.1702 62.5335 33.3737 62.4717 33.6113 62.4717C33.8424 62.4717 34.041 62.5335 34.207 62.6572C34.3763 62.7809 34.4609 62.9958 34.4609 63.3018C34.4609 63.5947 34.3763 63.8063 34.207 63.9365C34.041 64.0667 33.8424 64.1318 33.6113 64.1318C33.3737 64.1318 33.1702 64.0667 33.001 63.9365C32.835 63.8063 32.752 63.5947 32.752 63.3018ZM40.1445 62.0176C40.1445 62.4408 40.042 62.8086 39.8369 63.1211C39.6318 63.4336 39.3324 63.6745 38.9385 63.8438C38.5479 64.013 38.0726 64.0977 37.5127 64.0977C37.2653 64.0977 37.0228 64.0814 36.7852 64.0488C36.5508 64.0163 36.3245 63.9691 36.1064 63.9072C35.8916 63.8421 35.6865 63.7624 35.4912 63.668V62.2617C35.8298 62.4115 36.1813 62.5465 36.5459 62.667C36.9105 62.7874 37.2718 62.8477 37.6299 62.8477C37.8773 62.8477 38.0758 62.8151 38.2256 62.75C38.3786 62.6849 38.4893 62.5954 38.5576 62.4814C38.626 62.3675 38.6602 62.2373 38.6602 62.0908C38.6602 61.9118 38.5999 61.7588 38.4795 61.6318C38.359 61.5049 38.193 61.3861 37.9814 61.2754C37.7731 61.1647 37.5371 61.0459 37.2734 60.9189C37.1074 60.8408 36.9268 60.7464 36.7314 60.6357C36.5361 60.5218 36.3506 60.3835 36.1748 60.2207C35.999 60.0579 35.8542 59.861 35.7402 59.6299C35.6296 59.3955 35.5742 59.1156 35.5742 58.79C35.5742 58.3636 35.6719 57.999 35.8672 57.6963C36.0625 57.3936 36.3408 57.1624 36.7021 57.0029C37.0667 56.8402 37.4964 56.7588 37.9912 56.7588C38.3623 56.7588 38.7155 56.8027 39.0508 56.8906C39.3893 56.9753 39.7425 57.099 40.1104 57.2617L39.6221 58.4385C39.2933 58.305 38.9987 58.2025 38.7383 58.1309C38.4779 58.056 38.2126 58.0186 37.9424 58.0186C37.7536 58.0186 37.5924 58.0495 37.459 58.1113C37.3255 58.1699 37.2246 58.2546 37.1562 58.3652C37.0879 58.4727 37.0537 58.598 37.0537 58.7412C37.0537 58.9105 37.1025 59.0537 37.2002 59.1709C37.3011 59.2848 37.4508 59.3955 37.6494 59.5029C37.8512 59.6104 38.1019 59.7357 38.4014 59.8789C38.766 60.0514 39.0768 60.2321 39.334 60.4209C39.5944 60.6064 39.7946 60.8262 39.9346 61.0801C40.0745 61.3307 40.1445 61.6432 40.1445 62.0176ZM4.1582 72.0186C3.86849 72.0186 3.61133 72.0755 3.38672 72.1895C3.16536 72.3001 2.97819 72.4613 2.8252 72.6729C2.67546 72.8844 2.56152 73.14 2.4834 73.4395C2.40527 73.7389 2.36621 74.0758 2.36621 74.4502C2.36621 74.9548 2.42806 75.3861 2.55176 75.7441C2.67871 76.099 2.87402 76.3708 3.1377 76.5596C3.40137 76.7451 3.74154 76.8379 4.1582 76.8379C4.44792 76.8379 4.73763 76.8053 5.02734 76.7402C5.32031 76.6751 5.6377 76.5824 5.97949 76.4619V77.7314C5.66374 77.8617 5.35286 77.9544 5.04688 78.0098C4.74089 78.0684 4.39746 78.0977 4.0166 78.0977C3.28092 78.0977 2.67546 77.9463 2.2002 77.6436C1.72819 77.3376 1.37826 76.9111 1.15039 76.3643C0.922526 75.8141 0.808594 75.1729 0.808594 74.4404C0.808594 73.9001 0.881836 73.4053 1.02832 72.9561C1.1748 72.5068 1.38965 72.1178 1.67285 71.7891C1.95605 71.4603 2.30599 71.2064 2.72266 71.0273C3.13932 70.8483 3.61784 70.7588 4.1582 70.7588C4.51302 70.7588 4.86784 70.8044 5.22266 70.8955C5.58073 70.9834 5.92253 71.1055 6.24805 71.2617L5.75977 72.4922C5.49284 72.3652 5.22428 72.2546 4.9541 72.1602C4.68392 72.0658 4.41862 72.0186 4.1582 72.0186ZM13.9824 74.4209C13.9824 74.971 13.9141 75.4723 13.7773 75.9248C13.6406 76.374 13.4323 76.7614 13.1523 77.0869C12.8757 77.4124 12.5241 77.6631 12.0977 77.8389C11.6712 78.0114 11.1667 78.0977 10.584 78.0977C10.0013 78.0977 9.49674 78.0114 9.07031 77.8389C8.64388 77.6631 8.29069 77.4124 8.01074 77.0869C7.73405 76.7614 7.52734 76.3724 7.39062 75.9199C7.25391 75.4674 7.18555 74.9645 7.18555 74.4111C7.18555 73.6722 7.30599 73.0293 7.54688 72.4824C7.79102 71.9323 8.16536 71.5059 8.66992 71.2031C9.17448 70.9004 9.81576 70.749 10.5938 70.749C11.3685 70.749 12.0049 70.9004 12.5029 71.2031C13.0042 71.5059 13.3753 71.9323 13.6162 72.4824C13.8604 73.0326 13.9824 73.6787 13.9824 74.4209ZM8.77246 74.4209C8.77246 74.9189 8.83431 75.3486 8.95801 75.71C9.08496 76.068 9.2819 76.3447 9.54883 76.54C9.81576 76.7321 10.1608 76.8281 10.584 76.8281C11.0137 76.8281 11.362 76.7321 11.6289 76.54C11.8958 76.3447 12.0895 76.068 12.21 75.71C12.3337 75.3486 12.3955 74.9189 12.3955 74.4209C12.3955 73.6722 12.2555 73.083 11.9756 72.6533C11.6956 72.2236 11.235 72.0088 10.5938 72.0088C10.1673 72.0088 9.81901 72.1064 9.54883 72.3018C9.2819 72.4938 9.08496 72.7705 8.95801 73.1318C8.83431 73.4899 8.77246 73.9196 8.77246 74.4209ZM21.7949 78H19.8711L16.7656 72.5996H16.7217C16.7347 72.8242 16.7461 73.0505 16.7559 73.2783C16.7656 73.5062 16.7754 73.734 16.7852 73.9619C16.7949 74.1865 16.8047 74.4128 16.8145 74.6406V78H15.4619V70.8613H17.3711L20.4717 76.208H20.5059C20.4993 75.9867 20.4912 75.7669 20.4814 75.5488C20.4717 75.3307 20.4619 75.1126 20.4521 74.8945C20.4456 74.6764 20.4391 74.4583 20.4326 74.2402V70.8613H21.7949V78ZM27.8105 76.0176C27.8105 76.4408 27.708 76.8086 27.5029 77.1211C27.2979 77.4336 26.9984 77.6745 26.6045 77.8438C26.2139 78.013 25.7386 78.0977 25.1787 78.0977C24.9313 78.0977 24.6888 78.0814 24.4512 78.0488C24.2168 78.0163 23.9906 77.9691 23.7725 77.9072C23.5576 77.8421 23.3525 77.7624 23.1572 77.668V76.2617C23.4958 76.4115 23.8473 76.5465 24.2119 76.667C24.5765 76.7874 24.9378 76.8477 25.2959 76.8477C25.5433 76.8477 25.7419 76.8151 25.8916 76.75C26.0446 76.6849 26.1553 76.5954 26.2236 76.4814C26.292 76.3675 26.3262 76.2373 26.3262 76.0908C26.3262 75.9118 26.266 75.7588 26.1455 75.6318C26.0251 75.5049 25.859 75.3861 25.6475 75.2754C25.4391 75.1647 25.2031 75.0459 24.9395 74.9189C24.7734 74.8408 24.5928 74.7464 24.3975 74.6357C24.2021 74.5218 24.0166 74.3835 23.8408 74.2207C23.665 74.0579 23.5202 73.861 23.4062 73.6299C23.2956 73.3955 23.2402 73.1156 23.2402 72.79C23.2402 72.3636 23.3379 71.999 23.5332 71.6963C23.7285 71.3936 24.0068 71.1624 24.3682 71.0029C24.7327 70.8402 25.1624 70.7588 25.6572 70.7588C26.0283 70.7588 26.3815 70.8027 26.7168 70.8906C27.0553 70.9753 27.4085 71.099 27.7764 71.2617L27.2881 72.4385C26.9593 72.305 26.6647 72.2025 26.4043 72.1309C26.1439 72.056 25.8786 72.0186 25.6084 72.0186C25.4196 72.0186 25.2585 72.0495 25.125 72.1113C24.9915 72.1699 24.8906 72.2546 24.8223 72.3652C24.7539 72.4727 24.7197 72.598 24.7197 72.7412C24.7197 72.9105 24.7686 73.0537 24.8662 73.1709C24.9671 73.2848 25.1169 73.3955 25.3154 73.5029C25.5173 73.6104 25.7679 73.7357 26.0674 73.8789C26.432 74.0514 26.7428 74.2321 27 74.4209C27.2604 74.6064 27.4606 74.8262 27.6006 75.0801C27.7406 75.3307 27.8105 75.6432 27.8105 76.0176ZM35.584 74.4209C35.584 74.971 35.5156 75.4723 35.3789 75.9248C35.2422 76.374 35.0339 76.7614 34.7539 77.0869C34.4772 77.4124 34.1257 77.6631 33.6992 77.8389C33.2728 78.0114 32.7682 78.0977 32.1855 78.0977C31.6029 78.0977 31.0983 78.0114 30.6719 77.8389C30.2454 77.6631 29.8923 77.4124 29.6123 77.0869C29.3356 76.7614 29.1289 76.3724 28.9922 75.9199C28.8555 75.4674 28.7871 74.9645 28.7871 74.4111C28.7871 73.6722 28.9076 73.0293 29.1484 72.4824C29.3926 71.9323 29.7669 71.5059 30.2715 71.2031C30.776 70.9004 31.4173 70.749 32.1953 70.749C32.9701 70.749 33.6064 70.9004 34.1045 71.2031C34.6058 71.5059 34.9769 71.9323 35.2178 72.4824C35.4619 73.0326 35.584 73.6787 35.584 74.4209ZM30.374 74.4209C30.374 74.9189 30.4359 75.3486 30.5596 75.71C30.6865 76.068 30.8835 76.3447 31.1504 76.54C31.4173 76.7321 31.7624 76.8281 32.1855 76.8281C32.6152 76.8281 32.9635 76.7321 33.2305 76.54C33.4974 76.3447 33.6911 76.068 33.8115 75.71C33.9352 75.3486 33.9971 74.9189 33.9971 74.4209C33.9971 73.6722 33.8571 73.083 33.5771 72.6533C33.2972 72.2236 32.8366 72.0088 32.1953 72.0088C31.7689 72.0088 31.4206 72.1064 31.1504 72.3018C30.8835 72.4938 30.6865 72.7705 30.5596 73.1318C30.4359 73.4899 30.374 73.9196 30.374 74.4209ZM39.1436 70.8613C39.7913 70.8613 40.3252 70.9395 40.7451 71.0957C41.1683 71.252 41.4824 71.488 41.6875 71.8037C41.8926 72.1195 41.9951 72.5182 41.9951 73C41.9951 73.3255 41.9333 73.6104 41.8096 73.8545C41.6859 74.0986 41.5231 74.3053 41.3213 74.4746C41.1195 74.6439 40.9014 74.7822 40.667 74.8896L42.7666 78H41.0869L39.3828 75.2607H38.5771V78H37.0635V70.8613H39.1436ZM39.0361 72.1016H38.5771V74.0303H39.0654C39.5667 74.0303 39.9248 73.9473 40.1396 73.7812C40.3577 73.612 40.4668 73.3646 40.4668 73.0391C40.4668 72.7005 40.3496 72.4596 40.1152 72.3164C39.8841 72.1732 39.5244 72.1016 39.0361 72.1016ZM46.4189 78H44.9053V72.1211H42.9668V70.8613H48.3574V72.1211H46.4189V78ZM49.4561 78V70.8613H50.9697V78H49.4561ZM57.1367 78L56.6191 76.3008H54.0166L53.499 78H51.8682L54.3877 70.832H56.2383L58.7676 78H57.1367ZM56.2578 75.0312L55.7402 73.3711C55.7077 73.2604 55.6637 73.1188 55.6084 72.9463C55.5563 72.7705 55.5026 72.5931 55.4473 72.4141C55.3952 72.2318 55.3529 72.0739 55.3203 71.9404C55.2878 72.0739 55.2422 72.2399 55.1836 72.4385C55.1283 72.6338 55.0745 72.8193 55.0225 72.9951C54.9704 73.1709 54.9329 73.2962 54.9102 73.3711L54.3975 75.0312H56.2578Z" fill="#F8F8F8"/>
</svg>
