<svg width="30" height="30" viewBox="0 0 30 30" fill="none" xmlns="http://www.w3.org/2000/svg">
<path d="M26.4257 21.9141C25.4953 20.9766 23.2418 19.6084 22.1484 19.0571C20.7246 18.3399 20.6074 18.2813 19.4883 19.1127C18.7418 19.6676 18.2455 20.1633 17.3718 19.977C16.4982 19.7907 14.5998 18.7401 12.9375 17.0831C11.2752 15.426 10.1636 13.4725 9.97673 12.6018C9.78981 11.7311 10.2937 11.2407 10.8433 10.4924C11.6179 9.43774 11.5593 9.26196 10.8972 7.83813C10.381 6.73071 8.97302 4.49829 8.032 3.57251C7.02536 2.57817 7.02536 2.75395 6.37673 3.02348C5.84866 3.24567 5.34206 3.51574 4.86325 3.83032C3.92575 4.45317 3.40544 4.97055 3.04157 5.74809C2.6777 6.52563 2.51423 8.34848 4.39333 11.7622C6.27243 15.1758 7.59079 16.9213 10.3195 19.6424C13.0482 22.3635 15.1465 23.8266 18.2138 25.5469C22.0084 27.6721 23.4638 27.2579 24.2437 26.8946C25.0236 26.5313 25.5433 26.0157 26.1674 25.0782C26.4827 24.6002 26.7534 24.0941 26.9759 23.5665C27.2461 22.9202 27.4218 22.9202 26.4257 21.9141Z" stroke="#F8F8F8" stroke-width="2.5" stroke-miterlimit="10"/>
</svg>
