<svg width="30" height="30" viewBox="0 0 30 30" fill="none" xmlns="http://www.w3.org/2000/svg">
<path d="M15 2.8125C8.26934 2.8125 2.8125 8.26934 2.8125 15C2.8125 21.7307 8.26934 27.1875 15 27.1875C21.7307 27.1875 27.1875 21.7307 27.1875 15C27.1875 8.26934 21.7307 2.8125 15 2.8125Z" stroke="#F8F8F8" stroke-width="2.5" stroke-miterlimit="10"/>
<path d="M15 2.8125C11.5974 2.8125 8.39819 8.26934 8.39819 15C8.39819 21.7307 11.5974 27.1875 15 27.1875C18.4025 27.1875 21.6017 21.7307 21.6017 15C21.6017 8.26934 18.4025 2.8125 15 2.8125Z" stroke="#F8F8F8" stroke-width="2.5" stroke-miterlimit="10"/>
<path d="M6.87476 6.87476C9.11538 8.46558 11.9361 9.41421 15 9.41421C18.0638 9.41421 20.8845 8.46558 23.1251 6.87476M23.1251 23.1251C20.8845 21.5343 18.0638 20.5857 15 20.5857C11.9361 20.5857 9.11538 21.5343 6.87476 23.1251" stroke="#F8F8F8" stroke-width="2.5" stroke-linecap="round" stroke-linejoin="round"/>
<path d="M15 2.8125V27.1875M27.1875 15H2.8125" stroke="#F8F8F8" stroke-width="2.5" stroke-miterlimit="10"/>
</svg>
