<svg width="33" height="32" viewBox="0 0 33 32" fill="none" xmlns="http://www.w3.org/2000/svg">
<path d="M29.4467 9.72008C29.3227 9.59511 29.1752 9.49592 29.0128 9.42823C28.8503 9.36053 28.676 9.32568 28.5 9.32568C28.324 9.32568 28.1497 9.36053 27.9872 9.42823C27.8248 9.49592 27.6773 9.59511 27.5533 9.72008L19.1667 18.1201L13.4467 12.3867C13.3227 12.2618 13.1752 12.1626 13.0128 12.0949C12.8503 12.0272 12.676 11.9924 12.5 11.9924C12.324 11.9924 12.1497 12.0272 11.9872 12.0949C11.8248 12.1626 11.6773 12.2618 11.5533 12.3867L3.55333 20.3867C3.42836 20.5107 3.32917 20.6582 3.26148 20.8206C3.19379 20.9831 3.15894 21.1574 3.15894 21.3334C3.15894 21.5094 3.19379 21.6837 3.26148 21.8462C3.32917 22.0087 3.42836 22.1561 3.55333 22.2801C3.67728 22.4051 3.82475 22.5042 3.98723 22.5719C4.14971 22.6396 4.32398 22.6745 4.5 22.6745C4.67602 22.6745 4.85029 22.6396 5.01277 22.5719C5.17525 22.5042 5.32272 22.4051 5.44667 22.2801L12.5 15.2134L18.22 20.9467C18.344 21.0717 18.4914 21.1709 18.6539 21.2386C18.8164 21.3063 18.9907 21.3411 19.1667 21.3411C19.3427 21.3411 19.517 21.3063 19.6794 21.2386C19.8419 21.1709 19.9894 21.0717 20.1133 20.9467L29.4467 11.6134C29.5716 11.4895 29.6708 11.342 29.7385 11.1795C29.8062 11.017 29.8411 10.8428 29.8411 10.6667C29.8411 10.4907 29.8062 10.3165 29.7385 10.154C29.6708 9.9915 29.5716 9.84403 29.4467 9.72008Z" fill="#71839B"/>
</svg>
