<svg width="33" height="32" viewBox="0 0 33 32" fill="none" xmlns="http://www.w3.org/2000/svg">
<path d="M12.75 13.75H16.75V24.5" stroke="#71839B" stroke-width="1.5" stroke-linecap="round" stroke-linejoin="round"/>
<path d="M12.1875 24.75H20.8125" stroke="#797979" stroke-width="1.5" stroke-miterlimit="10" stroke-linecap="round"/>
<path d="M16.5 10C16.1044 10 15.7178 9.8827 15.3889 9.66294C15.06 9.44318 14.8036 9.13082 14.6522 8.76537C14.5009 8.39992 14.4613 7.99778 14.5384 7.60982C14.6156 7.22186 14.8061 6.86549 15.0858 6.58579C15.3655 6.30608 15.7219 6.1156 16.1098 6.03843C16.4978 5.96126 16.8999 6.00087 17.2654 6.15224C17.6308 6.30362 17.9432 6.55996 18.1629 6.88886C18.3827 7.21776 18.5 7.60444 18.5 8C18.5 8.53043 18.2893 9.03914 17.9142 9.41421C17.5391 9.78929 17.0304 10 16.5 10Z" fill="#797979"/>
</svg>
