<svg width="33" height="32" viewBox="0 0 33 32" fill="none" xmlns="http://www.w3.org/2000/svg">
<path d="M17.2867 17.3333L14.2201 20.3866C14.0951 20.5106 13.9959 20.6581 13.9282 20.8205C13.8605 20.983 13.8257 21.1573 13.8257 21.3333C13.8257 21.5093 13.8605 21.6836 13.9282 21.8461C13.9959 22.0086 14.0951 22.156 14.2201 22.28C14.344 22.4049 14.4915 22.5041 14.654 22.5718C14.8165 22.6395 14.9907 22.6744 15.1667 22.6744C15.3428 22.6744 15.517 22.6395 15.6795 22.5718C15.842 22.5041 15.9895 22.4049 16.1134 22.28L21.4467 16.9466C21.5681 16.8198 21.6633 16.6703 21.7267 16.5066C21.8601 16.182 21.8601 15.8179 21.7267 15.4933C21.6633 15.3296 21.5681 15.1801 21.4467 15.0533L16.1134 9.71997C15.9891 9.59565 15.8415 9.49704 15.6791 9.42976C15.5167 9.36248 15.3426 9.32785 15.1667 9.32785C14.9909 9.32785 14.8168 9.36248 14.6544 9.42976C14.492 9.49704 14.3444 9.59565 14.2201 9.71997C14.0958 9.84429 13.9971 9.99188 13.9299 10.1543C13.8626 10.3167 13.828 10.4908 13.828 10.6666C13.828 10.8424 13.8626 11.0165 13.9299 11.179C13.9971 11.3414 14.0958 11.489 14.2201 11.6133L17.2867 14.6666H4.50008C4.14646 14.6666 3.80732 14.8071 3.55727 15.0572C3.30722 15.3072 3.16675 15.6463 3.16675 16C3.16675 16.3536 3.30722 16.6927 3.55727 16.9428C3.80732 17.1928 4.14646 17.3333 4.50008 17.3333H17.2867ZM16.5001 2.66664C14.0082 2.65551 11.5631 3.34292 9.44204 4.65089C7.321 5.95886 5.60895 7.83505 4.50008 10.0666C4.34095 10.3849 4.31477 10.7533 4.42729 11.0909C4.53981 11.4285 4.78182 11.7075 5.10008 11.8666C5.41834 12.0258 5.78678 12.052 6.12435 11.9394C6.46191 11.8269 6.74095 11.5849 6.90008 11.2666C7.743 9.5644 9.02519 8.11813 10.6141 7.07729C12.2031 6.03645 14.0412 5.43879 15.9384 5.34609C17.8357 5.25339 19.7232 5.66901 21.4061 6.54998C23.089 7.43096 24.506 8.74534 25.5109 10.3573C26.5158 11.9693 27.0719 13.8203 27.1219 15.7191C27.172 17.618 26.714 19.4958 25.7954 21.1584C24.8768 22.821 23.5309 24.2082 21.8968 25.1765C20.2627 26.1449 18.3996 26.6593 16.5001 26.6666C14.5119 26.6752 12.5616 26.1231 10.873 25.0736C9.18439 24.0241 7.82589 22.5198 6.95341 20.7333C6.79429 20.415 6.51524 20.173 6.17768 20.0605C5.84011 19.948 5.47167 19.9742 5.15341 20.1333C4.83516 20.2924 4.59314 20.5715 4.48062 20.909C4.3681 21.2466 4.39428 21.615 4.55341 21.9333C5.61052 24.0607 7.21678 25.8669 9.20604 27.1654C11.1953 28.4638 13.4953 29.2072 15.8682 29.3186C18.2411 29.4301 20.6007 28.9056 22.7029 27.7993C24.8052 26.6931 26.5737 25.0453 27.8255 23.0264C29.0774 21.0075 29.7671 18.6908 29.8234 16.316C29.8797 13.9411 29.3005 11.5944 28.1457 9.51841C26.991 7.44247 25.3025 5.71273 23.2551 4.50811C21.2077 3.3035 18.8756 2.66775 16.5001 2.66664Z" fill="#71839B"/>
</svg>
