<svg width="36" height="42" viewBox="0 0 36 42" fill="none" xmlns="http://www.w3.org/2000/svg">
<path d="M24 33V34.5C24 36.0913 23.3679 37.6174 22.2426 38.7426C21.1174 39.8679 19.5913 40.5 18 40.5C16.4087 40.5 14.8826 39.8679 13.7574 38.7426C12.6321 37.6174 12 36.0913 12 34.5V33M34.095 29.9466C31.6875 27 29.9878 25.5 29.9878 17.3766C29.9878 9.9375 26.1891 7.28719 23.0625 6C22.6472 5.82937 22.2563 5.4375 22.1297 5.01094C21.5813 3.14437 20.0438 1.5 18 1.5C15.9563 1.5 14.4178 3.14531 13.875 5.01281C13.7484 5.44406 13.3575 5.82937 12.9422 6C9.81188 7.28906 6.01688 9.93 6.01688 17.3766C6.01219 25.5 4.31251 27 1.90501 29.9466C0.907506 31.1672 1.78126 33 3.52594 33H32.4834C34.2188 33 35.0869 31.1616 34.095 29.9466Z" stroke="#F8F8F8" stroke-width="2" stroke-linecap="round" stroke-linejoin="round"/>
</svg>
