<svg width="33" height="32" viewBox="0 0 33 32" fill="none" xmlns="http://www.w3.org/2000/svg">
<path d="M26.5 9H6.5C4.84315 9 3.5 10.3431 3.5 12V24C3.5 25.6569 4.84315 27 6.5 27H26.5C28.1569 27 29.5 25.6569 29.5 24V12C29.5 10.3431 28.1569 9 26.5 9Z" stroke="#71839B" stroke-width="1.5" stroke-linejoin="round"/>
<path d="M26.21 8.99997V7.12497C26.2099 6.6651 26.1082 6.21093 25.9123 5.79486C25.7164 5.3788 25.4311 5.01109 25.0768 4.71799C24.7224 4.42488 24.3077 4.21359 23.8623 4.0992C23.4169 3.98481 22.9517 3.97013 22.5 4.05622L6.04 6.8656C5.3252 7.00181 4.68035 7.38321 4.21665 7.944C3.75296 8.50478 3.49951 9.20981 3.5 9.93747V13" stroke="#71839B" stroke-width="1.5" stroke-linejoin="round"/>
<path d="M23.5 20C23.1044 20 22.7178 19.8827 22.3889 19.6629C22.06 19.4432 21.8036 19.1308 21.6522 18.7654C21.5009 18.3999 21.4613 17.9978 21.5384 17.6098C21.6156 17.2219 21.8061 16.8655 22.0858 16.5858C22.3655 16.3061 22.7219 16.1156 23.1098 16.0384C23.4978 15.9613 23.8999 16.0009 24.2654 16.1522C24.6308 16.3036 24.9432 16.56 25.1629 16.8889C25.3827 17.2178 25.5 17.6044 25.5 18C25.5 18.5304 25.2893 19.0391 24.9142 19.4142C24.5391 19.7893 24.0304 20 23.5 20Z" fill="#71839B"/>
</svg>
